<svg width="63" height="30" viewBox="0 0 63 30" fill="none" xmlns="http://www.w3.org/2000/svg">
<g clip-path="url(#clip0_111_3945)">
<path d="M15.105 15.5269C16.2278 18.456 18.0335 21.4246 20.5214 24.4338L16.6697 27.3826C15.3053 25.9776 14.1017 24.5238 13.059 23.0195C12.015 21.5152 11.0524 19.9005 10.1699 18.175C9.2868 19.9412 8.30447 21.5558 7.22107 23.0195C6.13767 24.4843 4.9341 25.8586 3.61036 27.1417L-0.000976562 24.3136C2.32544 21.9465 4.14096 19.0988 5.4456 15.7678C6.74901 12.4381 7.40164 9.66986 7.40164 7.46239V1.02301H13.4201V7.46239C13.4195 9.91021 13.9809 12.599 15.105 15.5269ZM20.7617 0H26.7802V29.6098H20.7617V0Z" fill="#3A98DA"/>
<path d="M62.1033 28.8272H35.1416V24.6144H62.1033V28.8272ZM36.7063 18.3556V14.1428H38.7523V5.05528H36.8265V0.842468H60.2977V5.05528H58.3725V14.1428H60.4185V18.3556H36.7063ZM44.7708 14.1428H52.354V5.05528H44.7708V14.1428Z" fill="#3A98DA"/>
</g>
<defs>
<clipPath id="clip0_111_3945">
<rect width="62.1038" height="29.6098" fill="white"/>
</clipPath>
</defs>
</svg>
