<svg width="80" height="80" viewBox="0 0 80 80" fill="none" xmlns="http://www.w3.org/2000/svg">
<path fill-rule="evenodd" clip-rule="evenodd" d="M62.1022 0H17.8959C8.05217 0 0 8.05465 0 17.8984V62.1016C0 71.9484 8.05217 80 17.8959 80H62.1016C71.946 80 80 71.9478 80 62.1016V17.8984C80.0006 8.05465 71.9466 0 62.1022 0ZM35.9463 15.2787H60.2703V23.1367H35.9463C31.4674 23.1367 27.8389 26.6553 27.8389 30.9947C27.8389 35.3353 31.4674 38.8545 35.9463 38.8545V46.7125C26.9909 46.7125 19.7297 39.6752 19.7297 30.9953C19.7297 22.3147 26.9909 15.2787 35.9463 15.2787ZM44.0543 62.4291H44.0537V70.2878H35.9463V62.4291H19.7303V54.5711H35.9457V46.7125H44.0531V54.5711H44.0537C48.5326 54.5711 52.1611 51.0525 52.1611 46.7113C52.1611 42.3719 48.5326 38.8533 44.0537 38.8533H35.9469V31.0232L44.0543 30.9959C53.0097 30.9959 60.2709 38.0319 60.2709 46.7119C60.2709 55.3913 53.0097 62.4291 44.0543 62.4291Z" fill="#3A98DA"/>
</svg>
