<svg width="147" height="14" viewBox="0 0 147 14" fill="none" xmlns="http://www.w3.org/2000/svg">
<path d="M6.57961 6.7628C7.0688 8.03846 7.85527 9.33157 8.93901 10.6421L7.26139 11.9265C6.66684 11.3145 6.14276 10.6817 5.68846 10.0261C5.23416 9.37049 4.81476 8.66723 4.43025 7.91566C4.04574 8.68468 3.61761 9.38794 3.14586 10.0261C2.67412 10.6643 2.15003 11.2628 1.57293 11.8218L0 10.5898C1.01328 9.55905 1.80444 8.31829 2.37215 6.86749C2.93985 5.41736 3.22438 4.21149 3.22438 3.24988V0.445575H5.84548V3.25055C5.84548 4.31684 6.08974 5.48782 6.57961 6.7628ZM9.04369 0H11.6648V12.8968H9.04369V0Z" fill="#959393"/>
<path d="M24.5613 8.94031C24.7183 9.37515 24.7975 9.79657 24.7975 10.2046C24.7975 11.0568 24.3405 11.7493 23.4266 12.2815C22.5126 12.8143 21.3839 13.08 20.0391 13.08C18.6944 13.08 17.5522 12.8116 16.6128 12.2754C15.6733 11.7386 15.2036 11.042 15.2036 10.1831C15.2036 9.32482 15.676 8.62828 16.6215 8.09144C17.567 7.5546 18.7158 7.28686 20.0687 7.28686C20.5022 7.28686 20.8967 7.29558 21.2524 7.31303C21.608 7.33047 21.9154 7.38282 22.1757 7.47005V5.63541L21.1276 7.05065C20.3935 6.78827 19.7734 6.47422 19.2668 6.10716C18.7595 5.7401 18.3139 5.31197 17.93 4.82277C17.5281 5.33009 17.0651 5.76627 16.541 6.13333C16.0169 6.50039 15.4485 6.77149 14.8372 6.94597L13.2119 5.3992C14.138 5.1026 14.8721 4.69125 15.4136 4.16716C15.9552 3.64308 16.3135 2.98746 16.4886 2.201H14.1816V0.367028H21.4685V2.20167H19.2406C19.4325 2.93579 19.813 3.56926 20.3807 4.10207C20.9484 4.63555 21.547 5.00664 22.1764 5.21601V0.0523071H24.7975V2.7781H26.1081V4.61274H24.7975V7.99414H23.5393C24.0627 8.19008 24.4036 8.50548 24.5613 8.94031ZM18.4729 9.39327C18.0401 9.57445 17.8247 9.8375 17.8247 10.1831C17.8247 10.5287 18.0408 10.7924 18.4729 10.9729C18.9057 11.1541 19.4278 11.2447 20.0405 11.2447C20.6713 11.2447 21.1846 11.1541 21.5812 10.9729C21.9778 10.7917 22.1757 10.5287 22.1757 10.1831C22.1757 9.8375 21.9778 9.57378 21.5812 9.39327C21.1846 9.21209 20.6713 9.1215 20.0405 9.1215C19.4278 9.12217 18.9051 9.21276 18.4729 9.39327Z" fill="#959393"/>
<path d="M35.9641 12.8707H33.6047V6.52728H33.0545C33.0189 8.41426 32.727 9.70737 32.1761 10.4066C31.6251 11.1058 30.9574 11.4548 30.171 11.4548C29.3845 11.4548 28.694 11.0293 28.1001 10.1784C27.5056 9.32756 27.209 7.91366 27.209 5.93676C27.209 3.94308 27.5056 2.52449 28.1001 1.68233C28.694 0.840163 29.3845 0.418746 30.171 0.418746C30.9574 0.418746 31.6037 0.74219 32.111 1.38841C32.6176 2.0353 32.9323 3.13581 33.0545 4.6913H33.6047V0.0261841H35.9641V12.8707ZM29.712 3.04723C29.5811 3.57602 29.5154 4.53964 29.5154 5.93743C29.5154 7.33589 29.5811 8.29884 29.712 8.82763C29.8428 9.35641 29.9958 9.6208 30.171 9.6208C30.3629 9.6208 30.5246 9.35641 30.6561 8.82763C30.787 8.29951 30.8528 7.33589 30.8528 5.93743C30.8528 4.53964 30.787 3.57602 30.6561 3.04723C30.5253 2.51912 30.3636 2.25406 30.171 2.25406C29.9958 2.25406 29.8435 2.51912 29.712 3.04723ZM38.7423 12.8707H36.3829V0.0261841H38.7423V12.8707Z" fill="#959393"/>
<path d="M51.9278 12.8968H49.3067V10.6951L47.8122 11.901C47.2526 11.446 46.7111 10.8964 46.187 10.2496C45.6629 9.60334 45.2173 8.87794 44.8502 8.07403C44.4134 8.84305 43.9235 9.55503 43.382 10.2106C42.8398 10.8663 42.2634 11.438 41.652 11.9278L40.0791 10.3549C41.2675 9.07926 42.1406 7.84319 42.7002 6.64604C43.2592 5.44957 43.539 4.239 43.539 3.01568V0.393233H46.1601V3.01434C46.1601 4.18532 46.4265 5.45695 46.9593 6.82857C47.4921 8.20086 48.2739 9.34096 49.3053 10.2496V5.76697H47.0774V3.93166H49.3053V0H51.9264V12.8968H51.9278Z" fill="#959393"/>
<path d="M72.4259 12.5559H60.6826V10.7213H72.4259V12.5559ZM61.3637 7.99485V6.16021H62.2549V2.20171H61.4161V0.367065H71.6388V2.20171H70.8V6.16021H71.6911V7.99485H61.3637ZM64.8767 6.16021H68.1795V2.20171H64.8767V6.16021Z" fill="#959393"/>
<path d="M81.2859 10.5898H85.847V12.4244H74.1299V10.5898H78.6648V8.30956H81.2859V10.5898ZM85.0606 4.84964H77.4066V5.95083H85.3229V7.78547H75.8867C75.5545 7.78547 75.2881 7.65461 75.0875 7.39224C74.8862 7.12986 74.7862 6.78091 74.7862 6.34406V3.01433H82.4401V2.17552H74.7862V0.340881H85.0612V4.84964H85.0606Z" fill="#959393"/>
<path d="M99.163 7.26072H87.3936V5.68846H99.163V7.26072ZM98.5081 3.61761H90.828V3.87999H98.5081V5.45292H89.3074C88.9752 5.45292 88.7088 5.35226 88.5082 5.15162C88.3068 4.95098 88.2069 4.68457 88.2069 4.3524V2.04468H95.887V1.80847H88.2069V0.236206H98.5088V3.61761H98.5081ZM98.5081 10.9045H90.828V11.1669H98.5081V12.7398H89.3074C88.9752 12.7398 88.7088 12.6392 88.5082 12.4385C88.3068 12.2372 88.2069 11.9708 88.2069 11.6393V9.33224H95.887V9.09603H88.2069V7.5231H98.5088V10.9045H98.5081Z" fill="#959393"/>
<path d="M114.812 0.419404V7.36607H109.045C108.713 7.36607 108.446 7.26542 108.246 7.06477C108.044 6.86413 107.944 6.59773 107.944 6.26556V0.419404H114.812ZM111.168 10.9045H118.796V12.7391H109.647C109.315 12.7391 109.049 12.6385 108.848 12.4378C108.647 12.2365 108.547 11.9701 108.547 11.6386V7.83782H111.168V10.9045ZM110.565 5.53076H112.191V2.25404H110.565V5.53076ZM118.665 3.06668H119.976V4.90132H118.665V9.43625H116.044V0H118.665V3.06668Z" fill="#959393"/>
<path d="M132.086 4.06318H133.396V5.89782H132.086V12.7391H129.465V11.6118H122.466C122.134 11.6118 121.867 11.5111 121.667 11.3105C121.465 11.1098 121.365 10.8434 121.365 10.5113V0.393233H123.986V9.77714H129.465V0H132.086V4.06318Z" fill="#959393"/>
<path d="M145.508 4.1417H146.818V5.97634H145.508V12.8962H142.887V11.6903H135.967C135.635 11.6903 135.368 11.5896 135.168 11.389C134.966 11.1884 134.866 10.9219 134.866 10.5898V0.367062H141.865V2.2017H137.488V9.85565H142.888V0H145.509V4.1417H145.508Z" fill="#959393"/>
</svg>
