<svg width="40" height="40" viewBox="0 0 40 40" fill="none" xmlns="http://www.w3.org/2000/svg">
<path fill-rule="evenodd" clip-rule="evenodd" d="M31.0511 0H8.94796C4.02609 0 0 4.02733 0 8.9492V31.0508C0 35.9742 4.02609 40 8.94796 40H31.0508C35.973 40 40 35.9739 40 31.0508V8.9492C40.0003 4.02733 35.9733 0 31.0511 0ZM17.9732 7.63933H30.1352V11.5683H17.9732C15.7337 11.5683 13.9195 13.3276 13.9195 15.4973C13.9195 17.6676 15.7337 19.4273 17.9732 19.4273V23.3563C13.4955 23.3563 9.86484 19.8376 9.86484 15.4976C9.86484 11.1573 13.4955 7.63933 17.9732 7.63933ZM22.0272 31.2146H22.0268V35.1439H17.9732V31.2146H9.86515V27.2856H17.9728V23.3563H22.0265V27.2856H22.0268C24.2663 27.2856 26.0805 25.5263 26.0805 23.3556C26.0805 21.186 24.2663 19.4266 22.0268 19.4266H17.9735V15.5116L22.0272 15.4979C26.5049 15.4979 30.1355 19.016 30.1355 23.356C30.1355 27.6956 26.5049 31.2146 22.0272 31.2146Z" fill="#3A98DA"/>
</svg>
