<svg width="16" height="16" viewBox="0 0 16 16" fill="none" xmlns="http://www.w3.org/2000/svg">
<path d="M8.00003 10.1333C9.17824 10.1333 10.1334 9.17818 10.1334 7.99997C10.1334 6.82176 9.17824 5.86664 8.00003 5.86664C6.82182 5.86664 5.8667 6.82176 5.8667 7.99997C5.8667 9.17818 6.82182 10.1333 8.00003 10.1333Z" fill="white"/>
<path d="M5.99992 1.33331L4.77992 2.66665H2.66659C1.93325 2.66665 1.33325 3.26665 1.33325 3.99998V12C1.33325 12.7333 1.93325 13.3333 2.66659 13.3333H13.3333C14.0666 13.3333 14.6666 12.7333 14.6666 12V3.99998C14.6666 3.26665 14.0666 2.66665 13.3333 2.66665H11.2199L9.99992 1.33331H5.99992ZM7.99992 11.3333C6.15992 11.3333 4.66659 9.83998 4.66659 7.99998C4.66659 6.15998 6.15992 4.66665 7.99992 4.66665C9.83992 4.66665 11.3333 6.15998 11.3333 7.99998C11.3333 9.83998 9.83992 11.3333 7.99992 11.3333Z" fill="white"/>
</svg>
