<svg width="20" height="20" viewBox="0 0 20 20" fill="none" xmlns="http://www.w3.org/2000/svg">
<path fill-rule="evenodd" clip-rule="evenodd" d="M13.9642 12.635L13.8339 12.8085L17.6574 16.632C17.7783 16.7698 17.8428 16.9483 17.8377 17.1317C17.8325 17.3173 17.7564 17.4939 17.6251 17.6251C17.4939 17.7564 17.3173 17.8325 17.1317 17.8377C16.9483 17.8428 16.7698 17.7783 16.632 17.6574L12.8085 13.8339L12.635 13.9642C11.5004 14.8165 10.1191 15.2766 8.7 15.275C5.07479 15.275 2.125 12.3252 2.125 8.7C2.125 5.07479 5.07479 2.125 8.7 2.125C12.3252 2.125 15.275 5.07506 15.275 8.70027C15.2766 10.1193 14.8165 11.5004 13.9642 12.635ZM4.43872 5.8527C3.87558 6.69551 3.575 7.68637 3.575 8.7C3.57663 10.0587 4.11707 11.3615 5.07779 12.3222C6.03851 13.2829 7.34135 13.8234 8.7 13.825C9.71363 13.825 10.7045 13.5244 11.5473 12.9613C12.3901 12.3981 13.047 11.5977 13.4349 10.6613C13.8228 9.72478 13.9243 8.69431 13.7265 7.70016C13.5288 6.70601 13.0407 5.79282 12.3239 5.07608C11.6072 4.35933 10.694 3.87122 9.69984 3.67348C8.70569 3.47573 7.67522 3.57722 6.73875 3.96512C5.80228 4.35302 5.00186 5.0099 4.43872 5.8527Z" fill="#A4A4A4"/>
</svg>
