<svg width="19" height="18" viewBox="0 0 19 18" fill="none" xmlns="http://www.w3.org/2000/svg">
<path d="M9.5 0C4.52932 0 0.5 3.46734 0.5 7.74467C0.5 10.5289 2.2074 12.9685 4.76944 14.3337C4.58108 15.0991 4.08779 17.1053 3.98894 17.5346C3.86725 18.0675 4.16845 18.0604 4.36567 17.9168C4.52046 17.8046 6.83213 16.0943 7.82943 15.3559C8.37075 15.4431 8.92885 15.4893 9.5 15.4893C14.4707 15.4893 18.5 12.0215 18.5 7.74467C18.5 3.46734 14.4707 0 9.5 0Z" fill="#1C1C1C"/>
<path d="M5.87794 5.46387H3.24643C2.99885 5.46387 2.79883 5.6821 2.79883 5.95108C2.79883 6.22006 2.99932 6.4383 3.24643 6.4383H4.10199V9.87011C4.10199 9.99496 4.14862 10.1178 4.23068 10.2066C4.31087 10.2949 4.42324 10.3457 4.5384 10.3457H4.63398C4.74868 10.3457 4.86058 10.2949 4.94124 10.2066C5.0233 10.1178 5.06993 9.99547 5.06993 9.87011V6.4383H5.87794C6.12551 6.4383 6.326 6.22006 6.326 5.95108C6.326 5.6821 6.12551 5.46387 5.87794 5.46387Z" fill="#FAE300"/>
<path d="M12.2029 9.42923H10.979V5.92434C10.979 5.63201 10.7617 5.39551 10.4936 5.39551C10.2256 5.39551 10.0078 5.63201 10.0078 5.92434V9.70227C10.0078 9.73171 10.0111 9.75911 10.0153 9.78703C10.0106 9.81443 10.0078 9.84285 10.0078 9.87127C10.0078 10.1159 10.1892 10.3138 10.4139 10.3138H12.2024C12.4276 10.3138 12.6085 10.1159 12.6085 9.87127C12.609 9.62716 12.4281 9.42923 12.2029 9.42923Z" fill="#FAE300"/>
<path d="M16.1138 9.5901L14.7501 7.64024L15.9823 6.29837C16.1493 6.11719 16.1493 5.82233 15.9823 5.64064C15.8154 5.45895 15.545 5.45895 15.3776 5.64064L13.8521 7.30122V5.92434C13.8521 5.63201 13.6348 5.39551 13.3667 5.39551C13.0986 5.39551 12.8809 5.63201 12.8809 5.92434V9.81848C12.8809 10.1108 13.0981 10.3473 13.3667 10.3473C13.6348 10.3473 13.8521 10.1113 13.8521 9.81848V8.6172L14.1295 8.31574L15.4196 10.158C15.5632 10.3666 15.8359 10.4097 16.0276 10.2519C16.2192 10.0951 16.2579 9.79869 16.1138 9.5901Z" fill="#FAE300"/>
<path d="M9.64498 9.7165L8.33342 5.81067C8.33342 5.81067 8.33015 5.80763 8.32922 5.80611C8.2453 5.56808 8.00331 5.39502 7.7147 5.39502C7.39439 5.39502 7.12956 5.60818 7.07687 5.8868C7.06801 5.90761 7.05916 5.92842 7.0517 5.95075L5.76205 9.7165C5.68232 9.96366 5.80168 10.2337 6.02781 10.3204C6.25441 10.4072 6.50292 10.2773 6.58265 10.0307L6.80598 9.33739H8.60104L8.82391 10.0307C8.90364 10.2773 9.15215 10.4072 9.37875 10.3204C9.60488 10.2342 9.72471 9.96366 9.64498 9.7165ZM7.09086 8.45228L7.69419 6.57854C7.70118 6.57854 7.70678 6.58057 7.71377 6.58057L8.31663 8.45228H7.09086Z" fill="#FAE300"/>
</svg>
