<svg
  width="48"
  height="48"
  viewBox="0 0 48 48"
  fill="none"
  xmlns="http://www.w3.org/2000/svg"
>
<path
    d="M24 44C29.3043 44 34.3914 41.8929 38.1421 38.1421C41.8929 34.3914 44 29.3043 44 24C44 18.6957 41.8929 13.6086 38.1421 9.85786C34.3914 6.10714 29.3043 4 24 4C18.6957 4 13.6086 6.10714 9.85786 9.85786C6.10714 13.6086 4 18.6957 4 24C4 29.3043 6.10714 34.3914 9.85786 38.1421C13.6086 41.8929 18.6957 44 24 44ZM21 33C21 32.2044 21.3161 31.4413 21.8787 30.8787C22.4413 30.3161 23.2044 30 24 30C24.7956 30 25.5587 30.3161 26.1213 30.8787C26.6839 31.4413 27 32.2044 27 33C27 33.7956 26.6839 34.5587 26.1213 35.1213C25.5587 35.6839 24.7956 36 24 36C23.2044 36 22.4413 35.6839 21.8787 35.1213C21.3161 34.5587 21 33.7956 21 33ZM22.032 13.64C22.1155 13.1789 22.3583 12.7617 22.7179 12.4613C23.0776 12.1609 23.5314 11.9963 24 11.9963C24.4686 11.9963 24.9224 12.1609 25.2821 12.4613C25.6417 12.7617 25.8845 13.1789 25.968 13.64L26 14V24L25.968 24.36C25.8845 24.8211 25.6417 25.2383 25.2821 25.5387C24.9224 25.8391 24.4686 26.0037 24 26.0037C23.5314 26.0037 23.0776 25.8391 22.7179 25.5387C22.3583 25.2383 22.1155 24.8211 22.032 24.36L22 24V14L22.032 13.64Z"
    fill="#A4A4A4"
  />
</svg>
