<svg id="Capa_1" enable-background="new 0 0 24 24" height="24" viewBox="0 0 512 512" width="512" xmlns="http://www.w3.org/2000/svg"><g>
  <path d="m477.405 317.961v-119.908c0-4.143-3.357-7.5-7.5-7.5h-35.021v-178.053c0-6.893-5.607-12.5-12.5-12.5h-216.779c-4.143 0-7.5 3.357-7.5 7.5v50.931c0 4.143 3.357 7.5 7.5 7.5s7.5-3.357 7.5-7.5v-43.431h76.126v43.431c0 4.143 3.357 7.5 7.5 7.5h42.316c4.143 0 7.5-3.357 7.5-7.5v-43.431h73.337v175.553h-102.552c-4.143 0-7.5 3.357-7.5 7.5s3.357 7.5 7.5 7.5h20.062v35.381c0 4.143 3.357 7.5 7.5 7.5h36.116c4.143 0 7.5-3.357 7.5-7.5v-35.381h73.895v100.23c-18.047-12.257-39.815-19.427-63.228-19.427-62.21 0-112.822 50.612-112.822 112.822 0 10.014 1.318 19.725 3.779 28.976h-26.122c0-45.288 0-179.59 0-222.601h18.32c4.143 0 7.5-3.357 7.5-7.5s-3.357-7.5-7.5-7.5h-18.32v-60.016c0-6.893-5.607-12.5-12.5-12.5h-38.406v-24.606c0-4.143-3.357-7.5-7.5-7.5s-7.5 3.357-7.5 7.5v24.606h-121.898c-6.893 0-12.5 5.607-12.5 12.5v54.213c0 4.143 3.357 7.5 7.5 7.5s7.5-3.357 7.5-7.5v-51.713h59.594v35.853c0 4.143 3.357 7.5 7.5 7.5h36.115c4.143 0 7.5-3.357 7.5-7.5v-35.853h59.595v129.799h-170.304v-43.086c0-4.143-3.357-7.5-7.5-7.5s-7.5 3.357-7.5 7.5v43.086h-16.613c-6.893 0-12.5 5.607-12.5 12.5v97.125c0 4.143 3.357 7.5 7.5 7.5s7.5-3.357 7.5-7.5v-94.625h88.707v35.497c0 4.143 3.357 7.5 7.5 7.5h36.115c4.143 0 7.5-3.357 7.5-7.5v-35.497h59.595v150.317h-199.417v-20.692c0-4.143-3.357-7.5-7.5-7.5s-7.5 3.357-7.5 7.5v20.692h-27.095c-4.143 0-7.5 3.357-7.5 7.5v32.622c0 4.143 3.357 7.5 7.5 7.5h23.165c-.432 2.038-.665 4.127-.665 6.245 0 16.531 13.449 29.98 29.979 29.98s29.979-13.449 29.979-29.979c0-2.12-.235-4.208-.667-6.245h227.133c20.622 22.263 50.086 36.224 82.754 36.224 62.21 0 112.822-50.612 112.822-112.822 0-31.864-13.282-60.681-34.595-81.217zm-145.857-267.03h-27.316v-35.931h27.316zm41.963 182.503h-21.116v-27.881h21.116zm-199.094-72.044h-21.115v-28.353h21.115zm0 144.443h-21.115v-27.997h21.115zm-99.459 176.188c0 8.26-6.72 14.979-14.979 14.979s-14.979-6.72-14.979-14.979c0-2.18.472-4.299 1.366-6.245h27.224c.894 1.945 1.368 4.062 1.368 6.245zm-59.958-21.246v-17.622h280.281c2.623 6.175 5.787 12.066 9.422 17.622zm384.178 36.225c-53.939 0-97.822-43.883-97.822-97.822s43.883-97.822 97.822-97.822 97.822 43.882 97.822 97.822-43.883 97.822-97.822 97.822z"/><path d="m452.453 345.903c-2.93-2.928-7.678-2.928-10.607 0l-95.942 95.942c-2.929 2.93-2.929 7.678 0 10.607 1.465 1.464 3.385 2.196 5.304 2.196s3.839-.732 5.304-2.196l95.942-95.942c2.928-2.929 2.928-7.677-.001-10.607z"/><path d="m365.663 390.135c13.494 0 24.472-10.978 24.472-24.472s-10.978-24.472-24.472-24.472-24.472 10.978-24.472 24.472 10.978 24.472 24.472 24.472zm0-33.944c5.223 0 9.472 4.249 9.472 9.472s-4.249 9.472-9.472 9.472-9.472-4.249-9.472-9.472 4.249-9.472 9.472-9.472z"/><path d="m432.692 408.221c-13.494 0-24.472 10.978-24.472 24.472s10.978 24.472 24.472 24.472 24.472-10.978 24.472-24.472-10.977-24.472-24.472-24.472zm0 33.943c-5.223 0-9.472-4.249-9.472-9.472s4.249-9.472 9.472-9.472 9.472 4.249 9.472 9.472-4.249 9.472-9.472 9.472z"/></g></svg>
