<svg
  width="14"
  height="17"
  viewBox="0 0 14 17"
  fill="none"
  xmlns="http://www.w3.org/2000/svg"
>
<path
    d="M5.94602 10.2841H8.10511L9.625 12.2656L10.3423 13.1463L12.7642 16.3068H10.5199L8.90057 14.1974L8.34659 13.4304L5.94602 10.2841ZM13.233 7.72727C13.233 9.2803 12.9489 10.6155 12.3807 11.733C11.8125 12.8456 11.0336 13.7027 10.044 14.304C9.05919 14.9006 7.93939 15.1989 6.68466 15.1989C5.42519 15.1989 4.30066 14.9006 3.31108 14.304C2.32623 13.7027 1.54972 12.8433 0.981534 11.7259C0.413352 10.6084 0.129261 9.27557 0.129261 7.72727C0.129261 6.17424 0.413352 4.84138 0.981534 3.72869C1.54972 2.61127 2.32623 1.75426 3.31108 1.15767C4.30066 0.556344 5.42519 0.255681 6.68466 0.255681C7.93939 0.255681 9.05919 0.556344 10.044 1.15767C11.0336 1.75426 11.8125 2.61127 12.3807 3.72869C12.9489 4.84138 13.233 6.17424 13.233 7.72727ZM11.0597 7.72727C11.0597 6.54356 10.8679 5.54687 10.4844 4.73722C10.1056 3.92282 9.58475 3.30729 8.92188 2.89062C8.26373 2.46922 7.51799 2.25852 6.68466 2.25852C5.84659 2.25852 5.09848 2.46922 4.44034 2.89062C3.7822 3.30729 3.26136 3.92282 2.87784 4.73722C2.49905 5.54687 2.30966 6.54356 2.30966 7.72727C2.30966 8.91098 2.49905 9.91004 2.87784 10.7244C3.26136 11.5341 3.7822 12.1496 4.44034 12.571C5.09848 12.9877 5.84659 13.196 6.68466 13.196C7.51799 13.196 8.26373 12.9877 8.92188 12.571C9.58475 12.1496 10.1056 11.5341 10.4844 10.7244C10.8679 9.91004 11.0597 8.91098 11.0597 7.72727Z"
    fill="#2E6993"
  />
</svg>
