<svg
  width="16"
  height="16"
  viewBox="0 0 16 16"
  fill="none"
  xmlns="http://www.w3.org/2000/svg"
>
<path
    d="M1.6001 4.16933C1.6001 3.75311 1.76867 3.35394 2.06873 3.05963C2.36879 2.76532 2.77575 2.59998 3.2001 2.59998H12.8001C13.2244 2.59998 13.6314 2.76532 13.9315 3.05963C14.2315 3.35394 14.4001 3.75311 14.4001 4.16933V10.4468C14.4001 10.863 14.2315 11.2621 13.9315 11.5565C13.6314 11.8508 13.2244 12.0161 12.8001 12.0161H5.1313C4.91914 12.0162 4.71569 12.0989 4.5657 12.246L2.2833 14.4847C2.2274 14.5397 2.15614 14.5771 2.07853 14.5924C2.00091 14.6076 1.92044 14.5999 1.8473 14.5702C1.77415 14.5406 1.71162 14.4903 1.66762 14.4258C1.62361 14.3612 1.60011 14.2854 1.6001 14.2077V4.16933ZM5.6001 7.30804C5.6001 7.09994 5.51581 6.90035 5.36578 6.75319C5.21575 6.60604 5.01227 6.52337 4.8001 6.52337C4.58792 6.52337 4.38444 6.60604 4.23441 6.75319C4.08438 6.90035 4.0001 7.09994 4.0001 7.30804C4.0001 7.51615 4.08438 7.71574 4.23441 7.8629C4.38444 8.01005 4.58792 8.09272 4.8001 8.09272C5.01227 8.09272 5.21575 8.01005 5.36578 7.8629C5.51581 7.71574 5.6001 7.51615 5.6001 7.30804ZM8.8001 7.30804C8.8001 7.09994 8.71581 6.90035 8.56578 6.75319C8.41575 6.60604 8.21227 6.52337 8.0001 6.52337C7.78792 6.52337 7.58444 6.60604 7.43441 6.75319C7.28438 6.90035 7.2001 7.09994 7.2001 7.30804C7.2001 7.51615 7.28438 7.71574 7.43441 7.8629C7.58444 8.01005 7.78792 8.09272 8.0001 8.09272C8.21227 8.09272 8.41575 8.01005 8.56578 7.8629C8.71581 7.71574 8.8001 7.51615 8.8001 7.30804ZM11.2001 8.09272C11.4123 8.09272 11.6158 8.01005 11.7658 7.8629C11.9158 7.71574 12.0001 7.51615 12.0001 7.30804C12.0001 7.09994 11.9158 6.90035 11.7658 6.75319C11.6158 6.60604 11.4123 6.52337 11.2001 6.52337C10.9879 6.52337 10.7844 6.60604 10.6344 6.75319C10.4844 6.90035 10.4001 7.09994 10.4001 7.30804C10.4001 7.51615 10.4844 7.71574 10.6344 7.8629C10.7844 8.01005 10.9879 8.09272 11.2001 8.09272Z"
    fill="#A4A4A4"
  />
</svg>
