<svg width="24" height="24" viewBox="0 0 24 24" fill="none" xmlns="http://www.w3.org/2000/svg">
<path d="M9.8621 11.1818C10.9726 11.1818 12.0377 10.7508 12.8229 9.98362C13.6082 9.21642 14.0493 8.17589 14.0493 7.09091C14.0493 6.00593 13.6082 4.96539 12.8229 4.1982C12.0377 3.43101 10.9726 3 9.8621 3C8.75158 3 7.68655 3.43101 6.90129 4.1982C6.11604 4.96539 5.67489 6.00593 5.67489 7.09091C5.67489 8.17589 6.11604 9.21642 6.90129 9.98362C7.68655 10.7508 8.75158 11.1818 9.8621 11.1818ZM9.8621 11.1818C11.5479 11.1818 13.0209 11.8036 14.0686 12.837C14.6898 13.4522 15.1545 14.2013 15.4252 15.024M9.8621 11.1818C6.51233 11.1818 4 13.6364 4 16.9091V21H12.3744M14.0686 17.5906L16.7208 20.1818L22 15.024" stroke="#999999" stroke-width="1.5"/>
</svg>
