<svg
  width="24"
  height="24"
  viewBox="0 0 24 24"
  fill="none"
  xmlns="http://www.w3.org/2000/svg"
>
<path
    d="M12.7911 3.04832L13.004 3.23679H13.0052L19.8636 9.30955C19.8637 9.30962 19.8637 9.30968 19.8638 9.30975C19.9862 9.41825 20.0833 9.55023 20.1496 9.69672C20.2159 9.84322 20.2499 10.0013 20.25 10.1609C20.25 10.161 20.25 10.161 20.25 10.1611V19.0995C20.25 19.4011 20.1285 19.6925 19.9087 19.9092C19.6885 20.1262 19.3875 20.25 19.0714 20.25H16.5C16.1839 20.25 15.8829 20.1262 15.6627 19.9092C15.4429 19.6925 15.3214 19.4011 15.3214 19.0995V14.0316C15.3214 13.6611 15.172 13.308 14.9096 13.0494L14.3831 13.5836L14.9096 13.0494C14.6475 12.7912 14.2945 12.6481 13.9286 12.6481H10.0714C9.70554 12.6481 9.35246 12.7912 9.09043 13.0494C8.82803 13.308 8.67857 13.6611 8.67857 14.0316V19.0995C8.67857 19.4011 8.55712 19.6925 8.33728 19.9092L8.86371 20.4434L8.33728 19.9092C8.11707 20.1262 7.8161 20.25 7.5 20.25H4.92857C4.61247 20.25 4.3115 20.1262 4.09129 19.9092L3.56487 20.4434L4.09129 19.9092C3.87146 19.6925 3.75 19.4011 3.75 19.0995V10.1611C3.75 10.161 3.75 10.161 3.75 10.1609C3.75006 10.0013 3.78415 9.84322 3.85041 9.69672L3.16707 9.38763L3.85041 9.69672C3.91672 9.55014 4.01394 9.41809 4.13642 9.30955L11.2076 3.04832C11.4234 2.85721 11.7053 2.75 11.9994 2.75C12.2934 2.75 12.5753 2.85721 12.7911 3.04832Z"
    stroke="#999999"
    stroke-width="1.5"
  />
</svg>
