<svg
  width="24"
  height="24"
  viewBox="0 0 24 24"
  fill="none"
  xmlns="http://www.w3.org/2000/svg"
>
<path
    fill-rule="evenodd"
    clip-rule="evenodd"
    d="M21.6085 8.96008L21.6088 8.9614C21.8366 9.89096 21.6278 10.846 21.0449 11.5938C21.0183 11.627 20.9832 11.6627 20.9375 11.7061C20.925 11.718 20.9105 11.7315 20.895 11.7459C20.8606 11.778 20.8213 11.8146 20.7881 11.8479L20.7002 11.9357V19C20.7002 19.9343 19.9345 20.7 19.0002 20.7H5.00018C4.06587 20.7 3.30018 19.9343 3.30018 19V11.9449L3.22317 11.8593C3.17774 11.8088 3.12661 11.7609 3.08709 11.7238L3.06291 11.7011C3.01639 11.657 2.9859 11.625 2.96294 11.5934L2.95668 11.5854C2.37403 10.8389 2.1728 9.89205 2.39221 8.9587L3.44188 4.59008L3.44216 4.58888C3.62077 3.83194 4.29174 3.29999 5.05018 3.29999H18.9402C19.7085 3.29999 20.3706 3.82262 20.5588 4.59122L21.6085 8.96008ZM15.2265 4.69999H12.7002V9.68999C12.7002 10.5553 13.3648 11.3 14.2202 11.3C14.7083 11.3 15.1142 11.1186 15.3964 10.787C15.7131 10.4319 15.8582 9.95663 15.7979 9.48323L15.7977 9.48184L15.2265 4.69999ZM8.77447 4.69999L8.19238 9.48375L8.19187 9.48821C8.16717 9.72006 8.18987 9.9545 8.25859 10.1773C8.3273 10.4001 8.4404 10.6068 8.5914 10.7844L8.59974 10.7935C8.88925 11.1071 9.27629 11.3 9.71018 11.3C10.6249 11.3 11.3002 10.5665 11.3002 9.68999V4.69999H8.77447ZM4.81173 4.69999L3.74829 9.29067C3.62769 9.78744 3.73642 10.3114 4.05396 10.7149C4.22264 10.9315 4.60021 11.3 5.23018 11.3C6.0082 11.3 6.64152 10.68 6.73794 9.89663L7.35811 4.69999H4.81173ZM4.70018 12.6302V19.3H19.3102V12.6302L18.973 12.6723C18.9367 12.6768 18.8966 12.6839 18.8685 12.6889L18.8459 12.6928C18.814 12.6981 18.7955 12.7 18.7802 12.7C17.9954 12.7 17.2811 12.3758 16.7541 11.8397L16.542 11.6239L16.3281 11.8379C15.7808 12.3851 15.0558 12.7 14.3002 12.7C13.4828 12.7 12.7563 12.3737 12.2186 11.8542L12.0084 11.6511L11.7999 11.856C11.2708 12.376 10.5645 12.7 9.78018 12.7C8.95114 12.7 8.22705 12.3826 7.68231 11.8379L7.46836 11.6239L7.25624 11.8397C6.72923 12.3758 6.01498 12.7 5.23018 12.7C5.21482 12.7 5.19637 12.6981 5.1645 12.6928L5.14185 12.6889C5.11374 12.6839 5.0737 12.6768 5.03739 12.6723L4.70018 12.6302ZM19.1463 4.68876L16.6425 4.70173L17.2621 9.89391C17.3481 10.6841 17.9964 11.3 18.7702 11.3C19.3984 11.3 19.7757 10.9335 19.945 10.7167C20.2664 10.3195 20.3717 9.793 20.2519 9.2899L19.1463 4.68876Z"
    fill="#25272D"
  />
</svg>
