<svg width="24" height="24" viewBox="0 0 24 24" fill="none" xmlns="http://www.w3.org/2000/svg">
<path d="M6.21598 20.0957L6.21595 20.0956L6.20504 20.0985L3.97965 20.6944C3.9796 20.6944 3.97955 20.6944 3.9795 20.6944C3.88633 20.7192 3.78827 20.7191 3.69514 20.6941C3.60197 20.6691 3.51702 20.62 3.44882 20.5517C3.38063 20.4835 3.33158 20.3985 3.3066 20.3053C3.28163 20.2121 3.28161 20.114 3.30654 20.0208L3.30658 20.0207L3.90158 17.7947L3.90166 17.7947L3.90452 17.7833C4.04522 17.2218 3.97671 16.6283 3.71193 16.1138C3.07706 14.8359 2.74775 13.4281 2.75001 12.0012V12C2.75001 6.89121 6.89123 2.75 12 2.75C17.1088 2.75 21.25 6.89121 21.25 12C21.25 17.1088 17.1088 21.25 12 21.25C10.5204 21.25 9.12421 20.9029 7.88687 20.2869C7.37169 20.0223 6.77774 19.9543 6.21598 20.0957Z" stroke="#999999" stroke-width="1.5"/>
<path d="M7.29289 12.7071C7.48043 12.8946 7.73478 13 8 13C8.26522 13 8.51957 12.8946 8.70711 12.7071C8.89464 12.5196 9 12.2652 9 12C9 11.7348 8.89464 11.4804 8.70711 11.2929C8.51957 11.1054 8.26522 11 8 11C7.73478 11 7.48043 11.1054 7.29289 11.2929C7.10536 11.4804 7 11.7348 7 12C7 12.2652 7.10536 12.5196 7.29289 12.7071Z" fill="#999999"/>
<path d="M11.2929 12.7071C11.1054 12.5196 11 12.2652 11 12C11 11.7348 11.1054 11.4804 11.2929 11.2929C11.4804 11.1054 11.7348 11 12 11C12.2652 11 12.5196 11.1054 12.7071 11.2929C12.8946 11.4804 13 11.7348 13 12C13 12.2652 12.8946 12.5196 12.7071 12.7071C12.5196 12.8946 12.2652 13 12 13C11.7348 13 11.4804 12.8946 11.2929 12.7071Z" fill="#999999"/>
<path d="M15.2929 12.7071C15.1054 12.5196 15 12.2652 15 12C15 11.7348 15.1054 11.4804 15.2929 11.2929C15.4804 11.1054 15.7348 11 16 11C16.2652 11 16.5196 11.1054 16.7071 11.2929C16.8946 11.4804 17 11.7348 17 12C17 12.2652 16.8946 12.5196 16.7071 12.7071C16.5196 12.8946 16.2652 13 16 13C15.7348 13 15.4804 12.8946 15.2929 12.7071Z" fill="#999999"/>
</svg>
